# xmcd CD database file
#
# Track frame offsets:
#	150
#	14452
#	25730
#	42937
#	61114
#	74552
#	92577
#	104212
#	122732
#	137827
#	150347
#	168992
#	182410
#	193695
#	206797
#	221042
#	234775
#	268395
#
# Disc length: 4440 seconds
#
# Revision: 0
# Processed by: cddbd v1.5.2PL0 Copyright (c) Steve Scherf et al.
# Submitted via: CDex 1.70beta2
#
DISCID=03115612
DTITLE=Jackpot - Is Everybody Happy
DYEAR=2004
DGENRE=70's
TTITLE0=Is Everybody Happy
TTITLE1=Ginny Ginny
TTITLE2=One And One Is Two
TTITLE3=Dance Dance Dance
TTITLE4=Coco (Not Coming Today)
TTITLE5=Sing My Lovesong
TTITLE6=Honey Honey
TTITLE7=I'm So Lonely
TTITLE8=It's Alright
TTITLE9=Comeback Comeback
TTITLE10=Si Tu Quires
TTITLE11=Midnight's Alright
TTITLE12=Land Of The Sun
TTITLE13=Daisy (You're Driving Me Crazy)
TTITLE14=Sha La La Lee
TTITLE15=Hey
TTITLE16=Ben Was A Clown
TTITLE17=Datatrack 18
EXTD=YEAR: 2004
EXTT0=
EXTT1=
EXTT2=
EXTT3=
EXTT4=
EXTT5=
EXTT6=
EXTT7=
EXTT8=
EXTT9=
EXTT10=
EXTT11=
EXTT12=
EXTT13=
EXTT14=
EXTT15=
EXTT16=
EXTT17=
PLAYORDER=
